<?xml version="1.0" standalone="no"?>
<!DOCTYPE svg PUBLIC "-//W3C//DTD SVG 20010904//EN"
 "http://www.w3.org/TR/2001/REC-SVG-20010904/DTD/svg10.dtd">
<svg version="1.0" xmlns="http://www.w3.org/2000/svg"
 width="1024.000000pt" height="1024.000000pt" viewBox="0 0 1024.000000 1024.000000"
 preserveAspectRatio="xMidYMid meet">

<g transform="translate(0.000000,1024.000000) scale(0.100000,-0.100000)"
fill="#000000" stroke="none">
<path d="M2312 9073 c-78 -38 -122 -139 -188 -428 -84 -368 -117 -719 -118
-1250 -1 -458 20 -785 81 -1236 l16 -125 -60 -120 c-217 -426 -323 -879 -323
-1383 0 -483 77 -846 255 -1206 87 -176 178 -317 298 -460 48 -57 87 -106 87
-110 0 -3 -17 -32 -39 -63 -71 -106 -131 -244 -131 -304 0 -41 25 -85 84 -148
230 -246 613 -516 1031 -729 279 -142 569 -265 1030 -435 363 -134 373 -133
555 24 86 75 169 151 271 247 l36 35 74 -37 c98 -50 259 -158 397 -267 130
-103 168 -122 223 -113 84 14 551 334 844 576 136 114 336 315 371 375 25 43
29 59 28 124 0 69 -11 107 -51 181 -2 4 18 19 44 34 171 99 402 290 539 444
272 305 463 697 535 1100 41 230 36 580 -11 777 l-17 74 34 66 c95 182 143
449 143 802 l0 143 55 58 c128 135 112 302 -38 378 -66 33 -245 78 -375 94
-56 7 -102 16 -102 20 0 4 13 76 29 161 36 184 75 462 93 653 21 221 17 917
-5 1125 -33 302 -76 546 -129 725 -28 95 -50 136 -92 173 -83 73 -192 53 -413
-74 -459 -265 -935 -705 -1467 -1357 -80 -97 -91 -107 -115 -102 -83 18 -278
36 -503 47 -290 14 -532 4 -818 -33 l-164 -21 -46 49 c-370 396 -476 506 -618
644 -506 493 -1066 890 -1254 889 -23 0 -58 -8 -76 -17z m353 -408 c341 -222
772 -622 1399 -1298 136 -146 136 -146 306 -118 462 76 971 78 1390 6 152 -27
195 -17 247 52 323 436 742 873 1133 1183 179 142 446 310 469 295 12 -7 66
-235 85 -355 48 -307 71 -689 63 -1060 -9 -416 -43 -704 -132 -1116 l-7 -31
-236 -6 c-613 -17 -1035 -120 -1212 -297 -30 -30 -63 -74 -73 -96 l-19 -42
-176 -5 c-108 -3 -202 -12 -242 -21 -126 -31 -112 -34 -144 29 -79 152 -323
282 -656 349 -583 118 -1401 98 -2075 -50 -137 -31 -351 -85 -390 -100 -13 -6
-15 1 -45 201 -105 697 -109 1505 -10 2112 30 186 92 446 115 483 8 13 53 -12
210 -115z m1730 -2730 c269 -26 432 -57 615 -116 118 -39 160 -60 211 -106 52
-47 64 -72 79 -162 29 -174 -27 -480 -121 -662 -79 -152 -170 -238 -316 -299
-290 -121 -837 -134 -1163 -28 -213 69 -314 167 -403 393 -71 179 -119 511
-99 682 6 51 18 107 28 125 29 58 95 117 146 133 49 14 267 42 373 48 181 10
506 5 650 -8z m3435 -9 c112 -20 178 -49 201 -91 25 -44 39 -185 39 -395 0
-268 -26 -449 -81 -565 -37 -78 -117 -156 -201 -195 -182 -85 -536 -122 -808
-85 -134 18 -204 37 -293 79 -167 78 -283 271 -348 580 -27 124 -32 358 -10
420 51 145 269 219 796 270 22 2 168 3 325 1 210 -2 310 -7 380 -19z m-4978
-288 c20 -9 41 -25 46 -35 6 -10 18 -72 26 -138 25 -183 74 -418 112 -533 134
-412 349 -587 824 -674 156 -29 547 -31 717 -5 224 35 376 87 513 178 250 164
394 424 460 830 29 173 38 195 93 219 97 43 355 54 382 16 7 -9 18 -51 25 -94
20 -129 77 -355 116 -459 126 -342 296 -496 634 -578 155 -38 272 -48 493 -42
233 6 384 29 541 81 69 23 103 30 108 23 25 -41 21 -461 -6 -608 -53 -287
-174 -567 -344 -799 -74 -100 -308 -331 -407 -402 -342 -242 -752 -398 -1151
-438 -60 -6 -123 -13 -140 -15 -75 -12 -101 -96 -45 -149 36 -35 82 -45 198
-46 185 0 453 48 668 120 66 22 125 40 132 40 21 0 27 -49 10 -84 -36 -77
-285 -311 -501 -471 -186 -138 -456 -315 -480 -315 -3 0 -52 33 -108 74 -280
203 -589 354 -1143 561 -818 306 -1071 409 -1360 555 -466 236 -712 440 -927
770 -175 268 -272 545 -324 925 -25 179 -25 578 0 755 35 253 92 479 156 615
64 135 95 145 435 141 170 -1 217 -5 247 -18z m-163 -3156 c340 -230 752 -424
1481 -697 281 -105 578 -222 685 -270 l60 -27 -50 -45 c-69 -62 -193 -161
-215 -173 -20 -11 -131 24 -439 139 -546 204 -918 381 -1211 576 -156 104
-339 250 -448 357 -80 79 -82 82 -67 105 8 12 23 35 32 51 20 32 44 62 51 62
2 0 57 -35 121 -78z"/>
<path d="M7354 8236 c-90 -39 -496 -482 -688 -750 -57 -80 -68 -116 -46 -156
6 -11 68 -66 138 -122 151 -121 250 -206 352 -304 41 -39 85 -74 97 -78 29 -9
81 18 93 49 5 13 23 140 40 282 43 362 85 645 121 832 33 172 33 198 -6 237
-27 27 -55 30 -101 10z"/>
<path d="M2654 8211 c-64 -39 -65 -86 -24 -706 11 -159 24 -399 29 -531 6
-133 15 -253 20 -267 12 -31 39 -47 79 -47 32 0 53 13 275 173 75 54 207 140
294 192 87 51 171 102 188 112 42 26 58 64 47 107 -18 63 -221 349 -403 566
-110 132 -318 345 -380 390 -49 35 -81 38 -125 11z"/>
<path d="M4296 5564 c-64 -20 -136 -92 -160 -159 -24 -67 -32 -210 -17 -295
19 -102 61 -167 135 -205 53 -27 69 -30 150 -30 83 0 96 3 146 31 93 52 140
155 140 306 0 193 -67 315 -194 353 -62 19 -136 18 -200 -1z"/>
<path d="M6979 5587 c-138 -39 -208 -172 -196 -375 8 -157 58 -248 158 -292
43 -18 66 -21 133 -18 140 6 225 69 262 195 23 79 15 269 -14 334 -28 63 -79
119 -129 141 -55 24 -156 31 -214 15z"/>
<path d="M5765 4459 c-139 -17 -182 -54 -157 -138 19 -61 92 -150 255 -312
166 -164 166 -163 167 -306 0 -71 0 -72 -37 -102 -93 -77 -300 -153 -496 -182
-202 -29 -366 -23 -539 21 -107 28 -143 26 -164 -5 -11 -17 -14 -35 -10 -60
21 -110 196 -174 478 -175 289 0 573 69 807 199 l55 30 62 -59 c160 -149 401
-184 586 -83 94 51 139 134 104 188 -22 33 -58 32 -161 -2 -63 -21 -100 -27
-171 -27 -82 0 -97 3 -156 32 -80 39 -129 91 -157 165 -22 59 -38 198 -28 239
4 14 59 98 123 189 64 90 124 181 135 201 38 75 16 141 -59 175 -31 15 -77 17
-297 19 -143 1 -296 -2 -340 -7z"/>
</g>
</svg>
